<svg width="1303" height="337" viewBox="0 0 1303 337" fill="none" xmlns="http://www.w3.org/2000/svg">
<path d="M14.0371 106.092V57.2003H244.388V106.092H158.52V337.675H99.9052V106.092H14.0371ZM316.43 216.063V337.675H258.089V57.2003H314.786V164.433H317.251C321.999 152.016 329.668 142.292 340.259 135.262C350.85 128.141 364.134 124.58 380.112 124.58C394.72 124.58 407.456 127.776 418.321 134.167C429.277 140.466 437.768 149.551 443.794 161.42C449.911 173.198 452.924 187.303 452.833 203.738V337.675H394.492V214.146C394.583 201.181 391.296 191.092 384.631 183.88C378.057 176.667 368.836 173.061 356.967 173.061C349.024 173.061 341.994 174.75 335.877 178.128C329.851 181.506 325.103 186.436 321.634 192.918C318.256 199.309 316.521 207.024 316.43 216.063ZM535.59 341.647C522.169 341.647 510.209 339.319 499.709 334.662C489.21 329.915 480.902 322.93 474.784 313.709C468.759 304.396 465.746 292.801 465.746 278.923C465.746 267.237 467.891 257.422 472.182 249.479C476.473 241.536 482.317 235.145 489.712 230.306C497.107 225.467 505.507 221.815 514.911 219.35C524.406 216.885 534.358 215.15 544.766 214.146C557 212.868 566.861 211.681 574.348 210.585C581.834 209.398 587.267 207.663 590.645 205.381C594.023 203.098 595.712 199.72 595.712 195.247V194.425C595.712 185.751 592.973 179.041 587.495 174.293C582.108 169.546 574.439 167.172 564.487 167.172C553.988 167.172 545.634 169.5 539.425 174.156C533.217 178.721 529.108 184.473 527.1 191.412L473.141 187.03C475.88 174.247 481.267 163.2 489.301 153.887C497.336 144.484 507.698 137.271 520.389 132.249C533.171 127.136 547.962 124.58 564.761 124.58C576.447 124.58 587.632 125.95 598.314 128.689C609.087 131.428 618.628 135.673 626.937 141.425C635.336 147.177 641.956 154.572 646.794 163.611C651.633 172.558 654.053 183.286 654.053 195.794V337.675H598.725V308.505H597.081C593.703 315.078 589.184 320.876 583.523 325.898C577.863 330.828 571.061 334.708 563.118 337.538C555.174 340.277 545.999 341.647 535.59 341.647ZM552.298 301.383C560.881 301.383 568.459 299.694 575.032 296.316C581.606 292.847 586.764 288.19 590.508 282.347C594.251 276.504 596.123 269.885 596.123 262.489V240.166C594.297 241.353 591.786 242.449 588.59 243.453C585.486 244.366 581.971 245.234 578.045 246.055C574.119 246.786 570.193 247.47 566.267 248.11C562.342 248.657 558.781 249.16 555.585 249.616C548.738 250.62 542.758 252.218 537.645 254.409C532.532 256.6 528.56 259.568 525.73 263.311C522.9 266.963 521.485 271.528 521.485 277.006C521.485 284.949 524.361 291.021 530.112 295.221C535.956 299.329 543.351 301.383 552.298 301.383ZM734.517 216.063V337.675H676.176V127.319H731.778V164.433H734.243C738.899 152.198 746.705 142.521 757.661 135.399C768.618 128.186 781.902 124.58 797.514 124.58C812.122 124.58 824.859 127.776 835.723 134.167C846.588 140.558 855.033 149.688 861.059 161.557C867.085 173.334 870.098 187.395 870.098 203.738V337.675H811.757V214.146C811.848 201.272 808.561 191.229 801.897 184.017C795.232 176.713 786.056 173.061 774.369 173.061C766.518 173.061 759.579 174.75 753.553 178.128C747.618 181.506 742.962 186.436 739.584 192.918C736.297 199.309 734.608 207.024 734.517 216.063ZM945.803 277.143L945.94 207.161H954.431L1021.81 127.319H1088.78L998.255 233.045H984.423L945.803 277.143ZM892.94 337.675V57.2003H951.281V337.675H892.94ZM1024.41 337.675L962.511 246.055L1001.4 204.833L1092.75 337.675H1024.41ZM1269.29 187.303L1215.88 190.59C1214.96 186.025 1213 181.917 1209.99 178.265C1206.97 174.521 1203 171.554 1198.07 169.363C1193.23 167.08 1187.44 165.939 1180.68 165.939C1171.64 165.939 1164.02 167.856 1157.81 171.691C1151.6 175.434 1148.5 180.456 1148.5 186.756C1148.5 191.777 1150.5 196.023 1154.52 199.492C1158.54 202.961 1165.43 205.746 1175.2 207.846L1213.27 215.515C1233.72 219.715 1248.97 226.471 1259.01 235.784C1269.06 245.097 1274.08 257.331 1274.08 272.487C1274.08 286.273 1270.02 298.37 1261.89 308.779C1253.86 319.187 1242.81 327.313 1228.75 333.156C1214.78 338.908 1198.67 341.784 1180.4 341.784C1152.56 341.784 1130.37 335.986 1113.85 324.391C1097.41 312.705 1087.78 296.818 1084.95 276.732L1142.33 273.719C1144.07 282.21 1148.27 288.693 1154.93 293.166C1161.6 297.549 1170.13 299.74 1180.54 299.74C1190.77 299.74 1198.98 297.777 1205.19 293.851C1211.49 289.834 1214.69 284.675 1214.78 278.376C1214.69 273.08 1212.45 268.743 1208.07 265.365C1203.69 261.896 1196.93 259.248 1187.8 257.422L1151.37 250.164C1130.83 246.055 1115.54 238.934 1105.49 228.8C1095.54 218.665 1090.57 205.746 1090.57 190.042C1090.57 176.53 1094.22 164.889 1101.52 155.12C1108.92 145.351 1119.28 137.819 1132.61 132.523C1146.03 127.228 1161.73 124.58 1179.72 124.58C1206.29 124.58 1227.2 130.195 1242.44 141.425C1257.78 152.655 1266.73 167.948 1269.29 187.303Z" fill="white"/>
<rect x="186.058" y="142.155" width="182.161" height="41.8806" rx="20.9403" fill="#110F10"/>
<path d="M215.837 168.595V158.255H217.397V162.749H222.552V158.255H224.117V168.595H222.552V164.087H217.397V168.595H215.837ZM229.534 168.752C228.807 168.752 228.173 168.585 227.631 168.252C227.089 167.919 226.668 167.452 226.369 166.853C226.069 166.254 225.919 165.554 225.919 164.753C225.919 163.949 226.069 163.245 226.369 162.643C226.668 162.04 227.089 161.572 227.631 161.239C228.173 160.906 228.807 160.739 229.534 160.739C230.261 160.739 230.896 160.906 231.438 161.239C231.98 161.572 232.4 162.04 232.7 162.643C233 163.245 233.149 163.949 233.149 164.753C233.149 165.554 233 166.254 232.7 166.853C232.4 167.452 231.98 167.919 231.438 168.252C230.896 168.585 230.261 168.752 229.534 168.752ZM229.539 167.484C230.011 167.484 230.401 167.36 230.711 167.111C231.02 166.862 231.249 166.53 231.397 166.116C231.549 165.702 231.625 165.246 231.625 164.748C231.625 164.253 231.549 163.799 231.397 163.385C231.249 162.967 231.02 162.633 230.711 162.38C230.401 162.128 230.011 162.001 229.539 162.001C229.065 162.001 228.671 162.128 228.358 162.38C228.048 162.633 227.818 162.967 227.666 163.385C227.518 163.799 227.444 164.253 227.444 164.748C227.444 165.246 227.518 165.702 227.666 166.116C227.818 166.53 228.048 166.862 228.358 167.111C228.671 167.36 229.065 167.484 229.539 167.484ZM240.646 162.734L239.277 162.976C239.22 162.801 239.129 162.634 239.005 162.476C238.884 162.318 238.719 162.188 238.51 162.087C238.301 161.986 238.04 161.936 237.727 161.936C237.3 161.936 236.943 162.032 236.657 162.224C236.371 162.412 236.228 162.656 236.228 162.956C236.228 163.215 236.324 163.424 236.516 163.582C236.708 163.74 237.017 163.87 237.445 163.97L238.677 164.253C239.39 164.418 239.922 164.672 240.272 165.016C240.622 165.359 240.797 165.805 240.797 166.354C240.797 166.818 240.662 167.232 240.393 167.596C240.127 167.956 239.755 168.238 239.277 168.444C238.803 168.649 238.252 168.752 237.626 168.752C236.758 168.752 236.049 168.567 235.501 168.196C234.952 167.823 234.616 167.293 234.491 166.606L235.95 166.384C236.041 166.764 236.228 167.052 236.511 167.247C236.793 167.439 237.162 167.535 237.616 167.535C238.111 167.535 238.507 167.432 238.803 167.227C239.099 167.018 239.247 166.764 239.247 166.465C239.247 166.222 239.156 166.019 238.974 165.854C238.796 165.689 238.522 165.564 238.151 165.48L236.839 165.192C236.115 165.027 235.58 164.765 235.233 164.405C234.89 164.045 234.718 163.588 234.718 163.036C234.718 162.579 234.846 162.178 235.102 161.835C235.358 161.492 235.711 161.224 236.162 161.032C236.613 160.837 237.13 160.739 237.712 160.739C238.55 160.739 239.21 160.921 239.691 161.285C240.173 161.645 240.491 162.128 240.646 162.734ZM242.457 168.595V160.84H243.966V168.595H242.457ZM243.219 159.644C242.957 159.644 242.731 159.556 242.543 159.381C242.358 159.203 242.265 158.991 242.265 158.745C242.265 158.496 242.358 158.284 242.543 158.109C242.731 157.93 242.957 157.841 243.219 157.841C243.482 157.841 243.706 157.93 243.891 158.109C244.079 158.284 244.173 158.496 244.173 158.745C244.173 158.991 244.079 159.203 243.891 159.381C243.706 159.556 243.482 159.644 243.219 159.644ZM249.34 168.752C248.576 168.752 247.918 168.588 247.366 168.262C246.817 167.932 246.393 167.469 246.093 166.874C245.797 166.274 245.649 165.573 245.649 164.768C245.649 163.974 245.797 163.274 246.093 162.668C246.393 162.062 246.81 161.589 247.345 161.249C247.884 160.909 248.513 160.739 249.234 160.739C249.671 160.739 250.095 160.812 250.506 160.956C250.917 161.101 251.285 161.328 251.612 161.638C251.938 161.948 252.196 162.35 252.384 162.845C252.573 163.336 252.667 163.933 252.667 164.637V165.172H246.502V164.041H251.188C251.188 163.644 251.107 163.292 250.945 162.986C250.784 162.676 250.556 162.432 250.264 162.254C249.974 162.076 249.634 161.986 249.244 161.986C248.82 161.986 248.449 162.091 248.133 162.299C247.82 162.505 247.578 162.774 247.406 163.107C247.238 163.437 247.154 163.795 247.154 164.183V165.066C247.154 165.584 247.244 166.025 247.426 166.389C247.611 166.752 247.869 167.03 248.199 167.222C248.528 167.41 248.914 167.505 249.355 167.505C249.641 167.505 249.902 167.464 250.137 167.383C250.373 167.299 250.577 167.175 250.748 167.01C250.92 166.845 251.051 166.641 251.142 166.399L252.571 166.656C252.456 167.077 252.251 167.446 251.955 167.762C251.662 168.075 251.294 168.319 250.849 168.494C250.408 168.666 249.905 168.752 249.34 168.752ZM254.342 168.595V160.84H255.801V162.072H255.882C256.023 161.655 256.272 161.327 256.629 161.088C256.989 160.845 257.396 160.724 257.851 160.724C257.945 160.724 258.056 160.727 258.184 160.734C258.315 160.741 258.418 160.749 258.492 160.759V162.203C258.431 162.187 258.324 162.168 258.169 162.148C258.014 162.124 257.859 162.113 257.704 162.113C257.348 162.113 257.029 162.188 256.75 162.34C256.474 162.488 256.255 162.695 256.094 162.961C255.932 163.223 255.851 163.523 255.851 163.859V168.595H254.342ZM260.989 171.503C260.763 171.503 260.558 171.485 260.373 171.448C260.187 171.414 260.049 171.377 259.959 171.337L260.322 170.1C260.598 170.174 260.844 170.206 261.059 170.196C261.275 170.186 261.465 170.105 261.63 169.953C261.798 169.802 261.946 169.554 262.074 169.211L262.261 168.696L259.423 160.84H261.039L263.003 166.858H263.084L265.048 160.84H266.668L263.473 169.63C263.324 170.034 263.136 170.376 262.907 170.655C262.678 170.938 262.406 171.15 262.089 171.291C261.773 171.433 261.406 171.503 260.989 171.503ZM271.971 168.595V158.255H278.454V159.598H273.531V162.749H278.115V164.087H273.531V167.252H278.514V168.595H271.971ZM286.228 162.734L284.859 162.976C284.802 162.801 284.711 162.634 284.587 162.476C284.466 162.318 284.301 162.188 284.092 162.087C283.883 161.986 283.622 161.936 283.309 161.936C282.882 161.936 282.525 162.032 282.239 162.224C281.953 162.412 281.81 162.656 281.81 162.956C281.81 163.215 281.906 163.424 282.098 163.582C282.29 163.74 282.599 163.87 283.027 163.97L284.259 164.253C284.972 164.418 285.504 164.672 285.854 165.016C286.204 165.359 286.379 165.805 286.379 166.354C286.379 166.818 286.244 167.232 285.975 167.596C285.709 167.956 285.337 168.238 284.859 168.444C284.385 168.649 283.834 168.752 283.208 168.752C282.34 168.752 281.631 168.567 281.083 168.196C280.534 167.823 280.198 167.293 280.073 166.606L281.532 166.384C281.623 166.764 281.81 167.052 282.093 167.247C282.375 167.439 282.744 167.535 283.198 167.535C283.693 167.535 284.089 167.432 284.385 167.227C284.681 167.018 284.829 166.764 284.829 166.465C284.829 166.222 284.738 166.019 284.556 165.854C284.378 165.689 284.104 165.564 283.733 165.48L282.421 165.192C281.697 165.027 281.162 164.765 280.815 164.405C280.472 164.045 280.3 163.588 280.3 163.036C280.3 162.579 280.428 162.178 280.684 161.835C280.94 161.492 281.293 161.224 281.744 161.032C282.195 160.837 282.712 160.739 283.294 160.739C284.132 160.739 284.792 160.921 285.273 161.285C285.755 161.645 286.073 162.128 286.228 162.734ZM293.85 162.734L292.482 162.976C292.425 162.801 292.334 162.634 292.209 162.476C292.088 162.318 291.923 162.188 291.714 162.087C291.506 161.986 291.245 161.936 290.932 161.936C290.504 161.936 290.148 162.032 289.861 162.224C289.575 162.412 289.432 162.656 289.432 162.956C289.432 163.215 289.528 163.424 289.72 163.582C289.912 163.74 290.222 163.87 290.649 163.97L291.881 164.253C292.595 164.418 293.126 164.672 293.476 165.016C293.826 165.359 294.002 165.805 294.002 166.354C294.002 166.818 293.867 167.232 293.598 167.596C293.332 167.956 292.96 168.238 292.482 168.444C292.007 168.649 291.457 168.752 290.831 168.752C289.962 168.752 289.254 168.567 288.705 168.196C288.157 167.823 287.82 167.293 287.696 166.606L289.155 166.384C289.246 166.764 289.432 167.052 289.715 167.247C289.998 167.439 290.366 167.535 290.821 167.535C291.316 167.535 291.711 167.432 292.007 167.227C292.303 167.018 292.452 166.764 292.452 166.465C292.452 166.222 292.361 166.019 292.179 165.854C292.001 165.689 291.726 165.564 291.356 165.48L290.043 165.192C289.32 165.027 288.784 164.765 288.438 164.405C288.094 164.045 287.923 163.588 287.923 163.036C287.923 162.579 288.051 162.178 288.306 161.835C288.562 161.492 288.916 161.224 289.367 161.032C289.818 160.837 290.334 160.739 290.917 160.739C291.755 160.739 292.415 160.921 292.896 161.285C293.377 161.645 293.695 162.128 293.85 162.734ZM299.004 168.752C298.24 168.752 297.582 168.588 297.03 168.262C296.481 167.932 296.057 167.469 295.757 166.874C295.461 166.274 295.313 165.573 295.313 164.768C295.313 163.974 295.461 163.274 295.757 162.668C296.057 162.062 296.474 161.589 297.009 161.249C297.548 160.909 298.177 160.739 298.898 160.739C299.335 160.739 299.759 160.812 300.17 160.956C300.581 161.101 300.949 161.328 301.276 161.638C301.602 161.948 301.86 162.35 302.048 162.845C302.237 163.336 302.331 163.933 302.331 164.637V165.172H296.166V164.041H300.852C300.852 163.644 300.771 163.292 300.609 162.986C300.448 162.676 300.22 162.432 299.928 162.254C299.638 162.076 299.298 161.986 298.908 161.986C298.484 161.986 298.113 162.091 297.797 162.299C297.484 162.505 297.242 162.774 297.07 163.107C296.902 163.437 296.818 163.795 296.818 164.183V165.066C296.818 165.584 296.908 166.025 297.09 166.389C297.275 166.752 297.533 167.03 297.863 167.222C298.192 167.41 298.578 167.505 299.019 167.505C299.305 167.505 299.566 167.464 299.801 167.383C300.037 167.299 300.241 167.175 300.412 167.01C300.584 166.845 300.715 166.641 300.806 166.399L302.235 166.656C302.12 167.077 301.915 167.446 301.619 167.762C301.326 168.075 300.958 168.319 300.513 168.494C300.072 168.666 299.569 168.752 299.004 168.752ZM305.515 163.991V168.595H304.006V160.84H305.455V162.102H305.551C305.729 161.692 306.008 161.362 306.389 161.113C306.773 160.864 307.256 160.739 307.838 160.739C308.366 160.739 308.829 160.85 309.226 161.072C309.623 161.291 309.931 161.618 310.15 162.052C310.369 162.486 310.478 163.023 310.478 163.663V168.595H308.969V163.844C308.969 163.282 308.822 162.843 308.53 162.527C308.237 162.207 307.834 162.047 307.323 162.047C306.973 162.047 306.661 162.123 306.389 162.274C306.12 162.426 305.906 162.648 305.748 162.941C305.593 163.23 305.515 163.58 305.515 163.991ZM316.123 160.84V162.052H311.887V160.84H316.123ZM313.023 158.982H314.533V166.318C314.533 166.611 314.576 166.831 314.664 166.98C314.751 167.124 314.864 167.224 315.002 167.277C315.143 167.328 315.297 167.353 315.462 167.353C315.583 167.353 315.689 167.345 315.78 167.328C315.87 167.311 315.941 167.298 315.992 167.288L316.264 168.535C316.177 168.568 316.052 168.602 315.891 168.636C315.729 168.673 315.527 168.693 315.285 168.696C314.888 168.703 314.517 168.632 314.174 168.484C313.831 168.336 313.553 168.107 313.341 167.798C313.129 167.488 313.023 167.099 313.023 166.631V158.982ZM317.793 168.595V160.84H319.302V168.595H317.793ZM318.555 159.644C318.293 159.644 318.067 159.556 317.879 159.381C317.694 159.203 317.601 158.991 317.601 158.745C317.601 158.496 317.694 158.284 317.879 158.109C318.067 157.93 318.293 157.841 318.555 157.841C318.818 157.841 319.042 157.93 319.227 158.109C319.415 158.284 319.509 158.496 319.509 158.745C319.509 158.991 319.415 159.203 319.227 159.381C319.042 159.556 318.818 159.644 318.555 159.644ZM323.59 168.767C323.099 168.767 322.654 168.676 322.257 168.494C321.86 168.309 321.545 168.042 321.313 167.691C321.084 167.341 320.97 166.912 320.97 166.404C320.97 165.966 321.054 165.606 321.222 165.324C321.391 165.041 321.618 164.817 321.904 164.652C322.19 164.487 322.51 164.363 322.863 164.278C323.217 164.194 323.577 164.13 323.944 164.087C324.408 164.033 324.785 163.989 325.074 163.955C325.364 163.918 325.574 163.859 325.706 163.779C325.837 163.698 325.902 163.567 325.902 163.385V163.349C325.902 162.909 325.778 162.567 325.529 162.325C325.283 162.082 324.916 161.961 324.428 161.961C323.92 161.961 323.519 162.074 323.227 162.299C322.937 162.521 322.737 162.769 322.626 163.042L321.207 162.718C321.375 162.247 321.621 161.867 321.944 161.577C322.271 161.285 322.646 161.072 323.07 160.941C323.494 160.807 323.94 160.739 324.408 160.739C324.718 160.739 325.046 160.776 325.393 160.85C325.743 160.921 326.069 161.052 326.372 161.244C326.678 161.436 326.929 161.71 327.124 162.067C327.32 162.421 327.417 162.88 327.417 163.445V168.595H325.943V167.535H325.882C325.785 167.73 325.638 167.922 325.443 168.111C325.248 168.299 324.997 168.456 324.691 168.58C324.384 168.705 324.018 168.767 323.59 168.767ZM323.918 167.555C324.336 167.555 324.692 167.473 324.989 167.308C325.288 167.143 325.515 166.927 325.67 166.662C325.828 166.392 325.908 166.104 325.908 165.798V164.799C325.854 164.852 325.749 164.903 325.595 164.95C325.443 164.994 325.27 165.032 325.074 165.066C324.879 165.096 324.689 165.125 324.504 165.152C324.319 165.175 324.164 165.196 324.039 165.213C323.747 165.25 323.479 165.312 323.237 165.399C322.998 165.487 322.806 165.613 322.661 165.778C322.52 165.94 322.449 166.155 322.449 166.424C322.449 166.798 322.587 167.081 322.863 167.272C323.139 167.461 323.491 167.555 323.918 167.555ZM330.937 158.255V168.595H329.428V158.255H330.937ZM338.78 162.734L337.411 162.976C337.354 162.801 337.263 162.634 337.139 162.476C337.017 162.318 336.853 162.188 336.644 162.087C336.435 161.986 336.174 161.936 335.861 161.936C335.434 161.936 335.077 162.032 334.791 162.224C334.505 162.412 334.362 162.656 334.362 162.956C334.362 163.215 334.458 163.424 334.65 163.582C334.841 163.74 335.151 163.87 335.579 163.97L336.81 164.253C337.524 164.418 338.056 164.672 338.406 165.016C338.756 165.359 338.931 165.805 338.931 166.354C338.931 166.818 338.796 167.232 338.527 167.596C338.261 167.956 337.889 168.238 337.411 168.444C336.937 168.649 336.386 168.752 335.76 168.752C334.892 168.752 334.183 168.567 333.635 168.196C333.086 167.823 332.75 167.293 332.625 166.606L334.084 166.384C334.175 166.764 334.362 167.052 334.645 167.247C334.927 167.439 335.296 167.535 335.75 167.535C336.245 167.535 336.64 167.432 336.937 167.227C337.233 167.018 337.381 166.764 337.381 166.465C337.381 166.222 337.29 166.019 337.108 165.854C336.93 165.689 336.656 165.564 336.285 165.48L334.973 165.192C334.249 165.027 333.714 164.765 333.367 164.405C333.024 164.045 332.852 163.588 332.852 163.036C332.852 162.579 332.98 162.178 333.236 161.835C333.492 161.492 333.845 161.224 334.296 161.032C334.747 160.837 335.264 160.739 335.846 160.739C336.684 160.739 337.344 160.921 337.825 161.285C338.307 161.645 338.625 162.128 338.78 162.734Z" fill="white"/>
<rect x="585.924" y="111.055" width="136.212" height="41.8806" rx="20.9403" fill="#110F10"/>
<path d="M604.147 127.155V137.495H602.587V127.155H604.147ZM605.909 128.498V127.155H613.911V128.498H610.685V137.495H609.13V128.498H605.909ZM622.33 137.642C621.637 137.642 621.039 137.515 620.538 137.263C620.04 137.01 619.656 136.667 619.387 136.233C619.117 135.795 618.983 135.301 618.983 134.749C618.983 134.328 619.07 133.954 619.245 133.628C619.42 133.298 619.664 132.993 619.977 132.714C620.29 132.435 620.652 132.153 621.063 131.871L622.729 130.694C623.012 130.509 623.232 130.314 623.39 130.109C623.548 129.9 623.628 129.643 623.628 129.336C623.628 129.094 623.523 128.862 623.315 128.639C623.106 128.417 622.826 128.306 622.476 128.306C622.234 128.306 622.02 128.365 621.835 128.483C621.653 128.601 621.51 128.752 621.406 128.937C621.305 129.119 621.255 129.311 621.255 129.513C621.255 129.749 621.319 129.986 621.446 130.225C621.578 130.464 621.746 130.711 621.951 130.967C622.157 131.219 622.372 131.482 622.598 131.755L627.399 137.495H625.693L621.719 132.825C621.386 132.431 621.076 132.061 620.79 131.714C620.504 131.364 620.272 131.011 620.093 130.654C619.918 130.294 619.831 129.905 619.831 129.488C619.831 129.013 619.939 128.592 620.154 128.225C620.373 127.855 620.677 127.566 621.068 127.357C621.458 127.148 621.916 127.044 622.441 127.044C622.973 127.044 623.429 127.148 623.809 127.357C624.193 127.562 624.488 127.837 624.693 128.18C624.902 128.52 625.006 128.892 625.006 129.296C625.006 129.787 624.883 130.221 624.637 130.598C624.395 130.972 624.06 131.315 623.633 131.628L621.558 133.158C621.154 133.454 620.873 133.747 620.714 134.037C620.56 134.323 620.482 134.547 620.482 134.708C620.482 135.004 620.558 135.279 620.709 135.531C620.864 135.784 621.08 135.986 621.356 136.137C621.635 136.288 621.961 136.364 622.335 136.364C622.719 136.364 623.092 136.282 623.456 136.117C623.823 135.948 624.154 135.708 624.451 135.395C624.75 135.082 624.987 134.706 625.162 134.269C625.337 133.831 625.425 133.342 625.425 132.8H626.788C626.788 133.466 626.712 134.03 626.561 134.491C626.409 134.949 626.226 135.322 626.011 135.612C625.799 135.898 625.598 136.122 625.41 136.283C625.349 136.337 625.292 136.391 625.238 136.445C625.184 136.499 625.127 136.553 625.066 136.607C624.716 136.96 624.292 137.221 623.794 137.389C623.299 137.557 622.811 137.642 622.33 137.642ZM632.466 137.495V127.155H638.948V128.498H634.026V131.649H638.61V132.987H634.026V136.152H639.009V137.495H632.466ZM642.421 127.155V137.495H640.911V127.155H642.421ZM647.794 137.652C647.03 137.652 646.372 137.488 645.82 137.162C645.271 136.832 644.847 136.369 644.547 135.773C644.251 135.174 644.103 134.473 644.103 133.668C644.103 132.874 644.251 132.174 644.547 131.568C644.847 130.962 645.264 130.489 645.799 130.149C646.338 129.809 646.967 129.639 647.688 129.639C648.125 129.639 648.549 129.712 648.96 129.856C649.371 130.001 649.739 130.228 650.066 130.538C650.392 130.848 650.65 131.25 650.838 131.745C651.027 132.236 651.121 132.833 651.121 133.537V134.072H644.956V132.941H649.642C649.642 132.544 649.561 132.192 649.399 131.886C649.238 131.576 649.01 131.332 648.718 131.154C648.428 130.975 648.088 130.886 647.698 130.886C647.274 130.886 646.903 130.991 646.587 131.199C646.274 131.405 646.032 131.674 645.86 132.007C645.692 132.337 645.608 132.695 645.608 133.082V133.966C645.608 134.484 645.698 134.925 645.88 135.289C646.065 135.652 646.323 135.93 646.653 136.122C646.983 136.31 647.368 136.405 647.809 136.405C648.095 136.405 648.356 136.364 648.591 136.283C648.827 136.199 649.031 136.075 649.202 135.91C649.374 135.745 649.505 135.541 649.596 135.299L651.025 135.556C650.911 135.977 650.705 136.346 650.409 136.662C650.116 136.975 649.748 137.219 649.303 137.394C648.862 137.566 648.359 137.652 647.794 137.652ZM656.062 137.652C655.312 137.652 654.666 137.482 654.124 137.142C653.585 136.798 653.171 136.325 652.882 135.723C652.592 135.12 652.447 134.43 652.447 133.653C652.447 132.865 652.596 132.17 652.892 131.568C653.188 130.962 653.605 130.489 654.144 130.149C654.682 129.809 655.317 129.639 656.047 129.639C656.636 129.639 657.161 129.749 657.623 129.967C658.084 130.183 658.456 130.486 658.738 130.876C659.024 131.267 659.194 131.723 659.248 132.244H657.779C657.698 131.881 657.513 131.568 657.224 131.305C656.938 131.043 656.554 130.911 656.073 130.911C655.652 130.911 655.283 131.023 654.967 131.245C654.654 131.463 654.41 131.776 654.235 132.184C654.06 132.588 653.972 133.066 653.972 133.618C653.972 134.183 654.058 134.671 654.23 135.082C654.401 135.492 654.644 135.81 654.957 136.036C655.273 136.262 655.645 136.374 656.073 136.374C656.359 136.374 656.618 136.322 656.85 136.218C657.086 136.11 657.283 135.957 657.441 135.758C657.602 135.56 657.715 135.321 657.779 135.041H659.248C659.194 135.543 659.031 135.991 658.758 136.384C658.486 136.778 658.121 137.088 657.663 137.313C657.209 137.539 656.675 137.652 656.062 137.652ZM664.483 129.74V130.952H660.247V129.74H664.483ZM661.383 127.882H662.892V135.218C662.892 135.511 662.936 135.731 663.023 135.879C663.111 136.024 663.224 136.124 663.362 136.177C663.503 136.228 663.656 136.253 663.821 136.253C663.942 136.253 664.048 136.245 664.139 136.228C664.23 136.211 664.301 136.198 664.351 136.187L664.624 137.435C664.536 137.468 664.412 137.502 664.25 137.536C664.089 137.573 663.887 137.593 663.644 137.596C663.247 137.603 662.877 137.532 662.534 137.384C662.19 137.236 661.913 137.007 661.701 136.697C661.489 136.388 661.383 135.999 661.383 135.531V127.882ZM666.152 137.495V129.74H667.612V130.972H667.692C667.834 130.555 668.083 130.226 668.44 129.988C668.8 129.745 669.207 129.624 669.661 129.624C669.756 129.624 669.867 129.627 669.995 129.634C670.126 129.641 670.229 129.649 670.303 129.659V131.103C670.242 131.086 670.134 131.068 669.979 131.048C669.825 131.024 669.67 131.012 669.515 131.012C669.158 131.012 668.84 131.088 668.561 131.24C668.285 131.388 668.066 131.595 667.904 131.861C667.743 132.123 667.662 132.423 667.662 132.759V137.495H666.152ZM674.598 137.652C673.871 137.652 673.236 137.485 672.694 137.152C672.153 136.819 671.732 136.352 671.432 135.753C671.133 135.154 670.983 134.454 670.983 133.653C670.983 132.849 671.133 132.145 671.432 131.543C671.732 130.94 672.153 130.472 672.694 130.139C673.236 129.806 673.871 129.639 674.598 129.639C675.325 129.639 675.959 129.806 676.501 130.139C677.043 130.472 677.464 130.94 677.764 131.543C678.063 132.145 678.213 132.849 678.213 133.653C678.213 134.454 678.063 135.154 677.764 135.753C677.464 136.352 677.043 136.819 676.501 137.152C675.959 137.485 675.325 137.652 674.598 137.652ZM674.603 136.384C675.074 136.384 675.465 136.26 675.774 136.011C676.084 135.762 676.313 135.43 676.461 135.016C676.612 134.602 676.688 134.146 676.688 133.648C676.688 133.153 676.612 132.699 676.461 132.285C676.313 131.867 676.084 131.532 675.774 131.28C675.465 131.028 675.074 130.901 674.603 130.901C674.128 130.901 673.735 131.028 673.422 131.28C673.112 131.532 672.881 131.867 672.73 132.285C672.582 132.699 672.508 133.153 672.508 133.648C672.508 134.146 672.582 134.602 672.73 135.016C672.881 135.43 673.112 135.762 673.422 136.011C673.735 136.26 674.128 136.384 674.603 136.384ZM681.407 132.891V137.495H679.898V129.74H681.347V131.002H681.443C681.621 130.592 681.901 130.262 682.281 130.013C682.665 129.764 683.148 129.639 683.73 129.639C684.258 129.639 684.721 129.75 685.118 129.972C685.516 130.191 685.824 130.518 686.042 130.952C686.261 131.386 686.37 131.923 686.37 132.562V137.495H684.861V132.744C684.861 132.182 684.714 131.743 684.422 131.426C684.129 131.107 683.727 130.947 683.215 130.947C682.865 130.947 682.554 131.023 682.281 131.174C682.012 131.325 681.798 131.548 681.64 131.84C681.485 132.13 681.407 132.48 681.407 132.891ZM688.395 137.495V129.74H689.905V137.495H688.395ZM689.157 128.544C688.895 128.544 688.669 128.456 688.481 128.281C688.296 128.103 688.203 127.891 688.203 127.645C688.203 127.396 688.296 127.184 688.481 127.009C688.669 126.83 688.895 126.741 689.157 126.741C689.42 126.741 689.644 126.83 689.829 127.009C690.017 127.184 690.112 127.396 690.112 127.645C690.112 127.891 690.017 128.103 689.829 128.281C689.644 128.456 689.42 128.544 689.157 128.544ZM695.202 137.652C694.452 137.652 693.805 137.482 693.263 137.142C692.725 136.798 692.311 136.325 692.021 135.723C691.732 135.12 691.587 134.43 691.587 133.653C691.587 132.865 691.735 132.17 692.031 131.568C692.328 130.962 692.745 130.489 693.284 130.149C693.822 129.809 694.457 129.639 695.187 129.639C695.776 129.639 696.301 129.749 696.762 129.967C697.223 130.183 697.595 130.486 697.878 130.876C698.164 131.267 698.334 131.723 698.388 132.244H696.919C696.838 131.881 696.653 131.568 696.363 131.305C696.077 131.043 695.694 130.911 695.212 130.911C694.791 130.911 694.423 131.023 694.107 131.245C693.794 131.463 693.549 131.776 693.374 132.184C693.199 132.588 693.112 133.066 693.112 133.618C693.112 134.183 693.198 134.671 693.369 135.082C693.541 135.492 693.783 135.81 694.096 136.036C694.413 136.262 694.785 136.374 695.212 136.374C695.498 136.374 695.757 136.322 695.99 136.218C696.225 136.11 696.422 135.957 696.58 135.758C696.742 135.56 696.855 135.321 696.919 135.041H698.388C698.334 135.543 698.171 135.991 697.898 136.384C697.626 136.778 697.26 137.088 696.803 137.313C696.348 137.539 695.815 137.652 695.202 137.652ZM705.813 131.633L704.445 131.876C704.388 131.701 704.297 131.534 704.173 131.376C704.051 131.218 703.887 131.088 703.678 130.987C703.469 130.886 703.208 130.836 702.895 130.836C702.468 130.836 702.111 130.932 701.825 131.124C701.539 131.312 701.396 131.556 701.396 131.856C701.396 132.115 701.492 132.323 701.684 132.482C701.875 132.64 702.185 132.769 702.613 132.87L703.844 133.153C704.558 133.318 705.09 133.572 705.44 133.916C705.79 134.259 705.965 134.705 705.965 135.253C705.965 135.718 705.83 136.132 705.561 136.495C705.295 136.856 704.923 137.138 704.445 137.344C703.971 137.549 703.42 137.652 702.794 137.652C701.926 137.652 701.217 137.467 700.669 137.096C700.12 136.723 699.784 136.193 699.659 135.506L701.118 135.284C701.209 135.664 701.396 135.952 701.679 136.147C701.961 136.339 702.33 136.435 702.784 136.435C703.279 136.435 703.674 136.332 703.971 136.127C704.267 135.918 704.415 135.664 704.415 135.365C704.415 135.122 704.324 134.919 704.142 134.754C703.964 134.589 703.69 134.464 703.319 134.38L702.007 134.092C701.283 133.927 700.748 133.665 700.401 133.305C700.058 132.944 699.886 132.488 699.886 131.936C699.886 131.479 700.014 131.078 700.27 130.735C700.526 130.391 700.879 130.124 701.33 129.932C701.781 129.737 702.298 129.639 702.88 129.639C703.718 129.639 704.378 129.821 704.859 130.184C705.341 130.545 705.659 131.028 705.813 131.633Z" fill="white"/>
<rect x="804.518" y="272.778" width="173.212" height="41.8806" rx="20.9403" fill="#110F10"/>
<path d="M822.809 288.879V299.219H821.249V288.879H822.809ZM826.469 294.614V299.219H824.96V291.464H826.409V292.726H826.505C826.683 292.315 826.963 291.985 827.343 291.736C827.727 291.487 828.21 291.363 828.792 291.363C829.32 291.363 829.783 291.474 830.18 291.696C830.578 291.915 830.886 292.241 831.104 292.675C831.323 293.11 831.432 293.647 831.432 294.286V299.219H829.923V294.468C829.923 293.906 829.776 293.466 829.484 293.15C829.191 292.83 828.789 292.67 828.277 292.67C827.927 292.67 827.616 292.746 827.343 292.898C827.074 293.049 826.86 293.271 826.702 293.564C826.547 293.854 826.469 294.204 826.469 294.614ZM839.268 293.357L837.9 293.599C837.843 293.424 837.752 293.258 837.627 293.1C837.506 292.941 837.341 292.812 837.133 292.711C836.924 292.61 836.663 292.559 836.35 292.559C835.923 292.559 835.566 292.655 835.28 292.847C834.994 293.036 834.851 293.28 834.851 293.579C834.851 293.838 834.946 294.047 835.138 294.205C835.33 294.363 835.64 294.493 836.067 294.594L837.299 294.877C838.013 295.042 838.545 295.296 838.895 295.639C839.245 295.982 839.42 296.428 839.42 296.977C839.42 297.442 839.285 297.856 839.016 298.219C838.75 298.579 838.378 298.862 837.9 299.067C837.425 299.273 836.875 299.375 836.249 299.375C835.381 299.375 834.672 299.19 834.123 298.82C833.575 298.446 833.238 297.916 833.114 297.23L834.573 297.007C834.664 297.388 834.851 297.675 835.133 297.871C835.416 298.063 835.785 298.158 836.239 298.158C836.734 298.158 837.129 298.056 837.425 297.851C837.722 297.642 837.87 297.388 837.87 297.088C837.87 296.846 837.779 296.642 837.597 296.477C837.419 296.312 837.144 296.188 836.774 296.104L835.461 295.816C834.738 295.651 834.203 295.388 833.856 295.028C833.513 294.668 833.341 294.212 833.341 293.66C833.341 293.202 833.469 292.802 833.725 292.458C833.98 292.115 834.334 291.847 834.785 291.656C835.236 291.46 835.753 291.363 836.335 291.363C837.173 291.363 837.833 291.545 838.314 291.908C838.795 292.268 839.113 292.751 839.268 293.357ZM844.699 291.464V292.675H840.464V291.464H844.699ZM841.6 289.606H843.109V296.942C843.109 297.235 843.153 297.455 843.24 297.603C843.328 297.748 843.441 297.847 843.579 297.901C843.72 297.951 843.873 297.977 844.038 297.977C844.159 297.977 844.265 297.968 844.356 297.951C844.447 297.935 844.518 297.921 844.568 297.911L844.841 299.158C844.753 299.192 844.629 299.225 844.467 299.259C844.306 299.296 844.104 299.316 843.861 299.32C843.464 299.326 843.094 299.256 842.751 299.108C842.407 298.96 842.13 298.731 841.918 298.421C841.706 298.111 841.6 297.723 841.6 297.255V289.606ZM846.369 299.219V291.464H847.879V299.219H846.369ZM847.132 290.267C846.869 290.267 846.644 290.18 846.455 290.005C846.27 289.826 846.178 289.614 846.178 289.369C846.178 289.119 846.27 288.907 846.455 288.732C846.644 288.554 846.869 288.465 847.132 288.465C847.394 288.465 847.618 288.554 847.803 288.732C847.992 288.907 848.086 289.119 848.086 289.369C848.086 289.614 847.992 289.826 847.803 290.005C847.618 290.18 847.394 290.267 847.132 290.267ZM853.53 291.464V292.675H849.294V291.464H853.53ZM850.43 289.606H851.94V296.942C851.94 297.235 851.983 297.455 852.071 297.603C852.158 297.748 852.271 297.847 852.409 297.901C852.55 297.951 852.704 297.977 852.868 297.977C852.99 297.977 853.096 297.968 853.187 297.951C853.277 297.935 853.348 297.921 853.399 297.911L853.671 299.158C853.584 299.192 853.459 299.225 853.298 299.259C853.136 299.296 852.934 299.316 852.692 299.32C852.295 299.326 851.924 299.256 851.581 299.108C851.238 298.96 850.96 298.731 850.748 298.421C850.536 298.111 850.43 297.723 850.43 297.255V289.606ZM860.112 296.003V291.464H861.627V299.219H860.143V297.876H860.062C859.883 298.29 859.597 298.635 859.203 298.911C858.813 299.183 858.327 299.32 857.744 299.32C857.246 299.32 856.805 299.21 856.422 298.992C856.041 298.769 855.742 298.441 855.523 298.007C855.307 297.573 855.2 297.036 855.2 296.396V291.464H856.709V296.215C856.709 296.743 856.856 297.164 857.149 297.477C857.441 297.79 857.822 297.946 858.29 297.946C858.572 297.946 858.853 297.876 859.133 297.734C859.416 297.593 859.649 297.379 859.835 297.093C860.023 296.807 860.116 296.444 860.112 296.003ZM867.275 291.464V292.675H863.039V291.464H867.275ZM864.175 289.606H865.685V296.942C865.685 297.235 865.729 297.455 865.816 297.603C865.904 297.748 866.016 297.847 866.154 297.901C866.296 297.951 866.449 297.977 866.614 297.977C866.735 297.977 866.841 297.968 866.932 297.951C867.023 297.935 867.094 297.921 867.144 297.911L867.417 299.158C867.329 299.192 867.205 299.225 867.043 299.259C866.881 299.296 866.68 299.316 866.437 299.32C866.04 299.326 865.67 299.256 865.326 299.108C864.983 298.96 864.705 298.731 864.493 298.421C864.281 298.111 864.175 297.723 864.175 297.255V289.606ZM868.945 299.219V291.464H870.455V299.219H868.945ZM869.708 290.267C869.445 290.267 869.22 290.18 869.031 290.005C868.846 289.826 868.753 289.614 868.753 289.369C868.753 289.119 868.846 288.907 869.031 288.732C869.22 288.554 869.445 288.465 869.708 288.465C869.97 288.465 870.194 288.554 870.379 288.732C870.568 288.907 870.662 289.119 870.662 289.369C870.662 289.614 870.568 289.826 870.379 290.005C870.194 290.18 869.97 290.267 869.708 290.267ZM875.752 299.375C875.025 299.375 874.391 299.209 873.849 298.875C873.307 298.542 872.886 298.076 872.587 297.477C872.287 296.878 872.137 296.178 872.137 295.377C872.137 294.572 872.287 293.869 872.587 293.266C872.886 292.664 873.307 292.196 873.849 291.863C874.391 291.529 875.025 291.363 875.752 291.363C876.479 291.363 877.114 291.529 877.656 291.863C878.198 292.196 878.618 292.664 878.918 293.266C879.217 293.869 879.367 294.572 879.367 295.377C879.367 296.178 879.217 296.878 878.918 297.477C878.618 298.076 878.198 298.542 877.656 298.875C877.114 299.209 876.479 299.375 875.752 299.375ZM875.757 298.108C876.229 298.108 876.619 297.983 876.929 297.734C877.238 297.485 877.467 297.154 877.615 296.74C877.767 296.326 877.842 295.87 877.842 295.372C877.842 294.877 877.767 294.422 877.615 294.008C877.467 293.591 877.238 293.256 876.929 293.004C876.619 292.751 876.229 292.625 875.757 292.625C875.283 292.625 874.889 292.751 874.576 293.004C874.266 293.256 874.036 293.591 873.884 294.008C873.736 294.422 873.662 294.877 873.662 295.372C873.662 295.87 873.736 296.326 873.884 296.74C874.036 297.154 874.266 297.485 874.576 297.734C874.889 297.983 875.283 298.108 875.757 298.108ZM882.562 294.614V299.219H881.052V291.464H882.501V292.726H882.597C882.776 292.315 883.055 291.985 883.435 291.736C883.819 291.487 884.302 291.363 884.884 291.363C885.413 291.363 885.876 291.474 886.273 291.696C886.67 291.915 886.978 292.241 887.197 292.675C887.415 293.11 887.525 293.647 887.525 294.286V299.219H886.015V294.468C886.015 293.906 885.869 293.466 885.576 293.15C885.283 292.83 884.881 292.67 884.369 292.67C884.019 292.67 883.708 292.746 883.435 292.898C883.166 293.049 882.952 293.271 882.794 293.564C882.639 293.854 882.562 294.204 882.562 294.614ZM891.806 299.39C891.315 299.39 890.871 299.3 890.473 299.118C890.076 298.933 889.761 298.665 889.529 298.315C889.3 297.965 889.186 297.536 889.186 297.028C889.186 296.59 889.27 296.23 889.438 295.947C889.607 295.664 889.834 295.441 890.12 295.276C890.406 295.111 890.726 294.986 891.079 294.902C891.433 294.818 891.793 294.754 892.16 294.71C892.624 294.656 893.001 294.613 893.291 294.579C893.58 294.542 893.79 294.483 893.922 294.402C894.053 294.321 894.119 294.19 894.119 294.008V293.973C894.119 293.532 893.994 293.19 893.745 292.948C893.499 292.706 893.132 292.585 892.644 292.585C892.136 292.585 891.736 292.697 891.443 292.923C891.153 293.145 890.953 293.392 890.842 293.665L889.423 293.342C889.591 292.871 889.837 292.49 890.16 292.201C890.487 291.908 890.862 291.696 891.286 291.565C891.71 291.43 892.156 291.363 892.624 291.363C892.934 291.363 893.262 291.4 893.609 291.474C893.959 291.545 894.285 291.676 894.588 291.868C894.894 292.06 895.145 292.334 895.34 292.691C895.536 293.044 895.633 293.503 895.633 294.069V299.219H894.159V298.158H894.098C894.001 298.354 893.854 298.546 893.659 298.734C893.464 298.923 893.213 299.079 892.907 299.204C892.601 299.328 892.234 299.39 891.806 299.39ZM892.134 298.179C892.552 298.179 892.909 298.096 893.205 297.931C893.504 297.766 893.732 297.551 893.886 297.285C894.045 297.016 894.124 296.728 894.124 296.422V295.422C894.07 295.476 893.965 295.526 893.811 295.574C893.659 295.617 893.486 295.656 893.291 295.69C893.095 295.72 892.905 295.749 892.72 295.775C892.535 295.799 892.38 295.819 892.256 295.836C891.963 295.873 891.695 295.935 891.453 296.023C891.214 296.11 891.022 296.237 890.877 296.402C890.736 296.563 890.665 296.778 890.665 297.048C890.665 297.421 890.803 297.704 891.079 297.896C891.355 298.084 891.707 298.179 892.134 298.179ZM899.154 288.879V299.219H897.644V288.879H899.154ZM910.708 291.595C910.654 291.117 910.432 290.747 910.041 290.484C909.651 290.218 909.159 290.085 908.567 290.085C908.143 290.085 907.776 290.153 907.466 290.287C907.157 290.419 906.916 290.6 906.744 290.833C906.576 291.062 906.492 291.322 906.492 291.615C906.492 291.861 906.549 292.073 906.664 292.251C906.781 292.43 906.935 292.58 907.123 292.701C907.315 292.819 907.52 292.918 907.739 292.999C907.958 293.076 908.168 293.14 908.37 293.19L909.38 293.453C909.71 293.534 910.048 293.643 910.395 293.781C910.741 293.919 911.063 294.101 911.359 294.326C911.655 294.552 911.894 294.831 912.076 295.165C912.261 295.498 912.354 295.897 912.354 296.361C912.354 296.947 912.202 297.467 911.899 297.921C911.6 298.376 911.164 298.734 910.592 298.997C910.023 299.259 909.334 299.39 908.527 299.39C907.753 299.39 907.083 299.268 906.517 299.022C905.952 298.776 905.509 298.428 905.189 297.977C904.87 297.522 904.693 296.984 904.659 296.361H906.224C906.255 296.735 906.376 297.046 906.588 297.295C906.803 297.541 907.078 297.724 907.411 297.845C907.747 297.963 908.116 298.022 908.517 298.022C908.958 298.022 909.35 297.953 909.693 297.815C910.04 297.674 910.312 297.479 910.511 297.23C910.709 296.977 910.809 296.683 910.809 296.346C910.809 296.04 910.721 295.789 910.546 295.594C910.375 295.398 910.141 295.237 909.844 295.109C909.552 294.981 909.22 294.868 908.85 294.771L907.628 294.438C906.8 294.212 906.144 293.88 905.659 293.443C905.178 293.005 904.937 292.426 904.937 291.706C904.937 291.11 905.099 290.59 905.422 290.146C905.745 289.702 906.182 289.357 906.734 289.111C907.286 288.862 907.909 288.737 908.602 288.737C909.303 288.737 909.92 288.86 910.455 289.106C910.994 289.352 911.418 289.69 911.728 290.121C912.037 290.548 912.199 291.04 912.212 291.595H910.708ZM919.009 296.003V291.464H920.524V299.219H919.04V297.876H918.959C918.78 298.29 918.494 298.635 918.1 298.911C917.71 299.183 917.224 299.32 916.641 299.32C916.143 299.32 915.702 299.21 915.319 298.992C914.938 298.769 914.639 298.441 914.42 298.007C914.204 297.573 914.097 297.036 914.097 296.396V291.464H915.606V296.215C915.606 296.743 915.753 297.164 916.046 297.477C916.338 297.79 916.719 297.946 917.187 297.946C917.469 297.946 917.75 297.876 918.03 297.734C918.313 297.593 918.546 297.379 918.732 297.093C918.92 296.807 919.013 296.444 919.009 296.003ZM922.552 302.127V291.464H924.027V292.721H924.153C924.24 292.559 924.367 292.373 924.531 292.161C924.696 291.948 924.925 291.763 925.218 291.605C925.511 291.444 925.898 291.363 926.379 291.363C927.005 291.363 927.564 291.521 928.056 291.837C928.547 292.154 928.932 292.61 929.212 293.206C929.494 293.801 929.636 294.518 929.636 295.356C929.636 296.195 929.496 296.913 929.217 297.512C928.937 298.108 928.554 298.567 928.066 298.891C927.578 299.21 927.021 299.37 926.394 299.37C925.923 299.37 925.538 299.291 925.238 299.133C924.942 298.975 924.71 298.79 924.542 298.578C924.373 298.365 924.244 298.177 924.153 298.012H924.062V302.127H922.552ZM924.032 295.341C924.032 295.887 924.111 296.364 924.269 296.775C924.427 297.186 924.656 297.507 924.956 297.739C925.255 297.968 925.622 298.083 926.056 298.083C926.507 298.083 926.884 297.963 927.187 297.724C927.49 297.482 927.719 297.154 927.874 296.74C928.032 296.326 928.111 295.86 928.111 295.341C928.111 294.83 928.034 294.37 927.879 293.963C927.727 293.556 927.498 293.234 927.192 292.999C926.889 292.763 926.511 292.645 926.056 292.645C925.619 292.645 925.248 292.758 924.945 292.983C924.646 293.209 924.419 293.524 924.264 293.928C924.109 294.331 924.032 294.803 924.032 295.341ZM931.327 302.127V291.464H932.801V292.721H932.928C933.015 292.559 933.141 292.373 933.306 292.161C933.471 291.948 933.7 291.763 933.993 291.605C934.286 291.444 934.673 291.363 935.154 291.363C935.78 291.363 936.339 291.521 936.83 291.837C937.322 292.154 937.707 292.61 937.987 293.206C938.269 293.801 938.411 294.518 938.411 295.356C938.411 296.195 938.271 296.913 937.992 297.512C937.712 298.108 937.329 298.567 936.84 298.891C936.352 299.21 935.795 299.37 935.169 299.37C934.698 299.37 934.313 299.291 934.013 299.133C933.717 298.975 933.485 298.79 933.316 298.578C933.148 298.365 933.018 298.177 932.928 298.012H932.837V302.127H931.327ZM932.806 295.341C932.806 295.887 932.886 296.364 933.044 296.775C933.202 297.186 933.431 297.507 933.73 297.739C934.03 297.968 934.397 298.083 934.831 298.083C935.282 298.083 935.659 297.963 935.962 297.724C936.265 297.482 936.494 297.154 936.649 296.74C936.807 296.326 936.886 295.86 936.886 295.341C936.886 294.83 936.808 294.37 936.654 293.963C936.502 293.556 936.273 293.234 935.967 292.999C935.664 292.763 935.285 292.645 934.831 292.645C934.393 292.645 934.023 292.758 933.72 292.983C933.421 293.209 933.194 293.524 933.039 293.928C932.884 294.331 932.806 294.803 932.806 295.341ZM941.612 288.879V299.219H940.102V288.879H941.612ZM943.642 299.219V291.464H945.152V299.219H943.642ZM944.405 290.267C944.142 290.267 943.917 290.18 943.728 290.005C943.543 289.826 943.451 289.614 943.451 289.369C943.451 289.119 943.543 288.907 943.728 288.732C943.917 288.554 944.142 288.465 944.405 288.465C944.667 288.465 944.891 288.554 945.076 288.732C945.265 288.907 945.359 289.119 945.359 289.369C945.359 289.614 945.265 289.826 945.076 290.005C944.891 290.18 944.667 290.267 944.405 290.267ZM950.525 299.375C949.761 299.375 949.103 299.212 948.551 298.886C948.003 298.556 947.578 298.093 947.279 297.497C946.983 296.898 946.835 296.196 946.835 295.392C946.835 294.597 946.983 293.897 947.279 293.291C947.578 292.686 947.996 292.213 948.531 291.873C949.07 291.533 949.699 291.363 950.419 291.363C950.857 291.363 951.281 291.435 951.692 291.58C952.102 291.725 952.471 291.952 952.797 292.261C953.124 292.571 953.381 292.973 953.57 293.468C953.758 293.96 953.852 294.557 953.852 295.26V295.796H947.688V294.665H952.373C952.373 294.268 952.292 293.916 952.131 293.61C951.969 293.3 951.742 293.056 951.449 292.877C951.16 292.699 950.82 292.61 950.429 292.61C950.005 292.61 949.635 292.714 949.319 292.923C949.006 293.128 948.763 293.397 948.592 293.731C948.423 294.061 948.339 294.419 948.339 294.806V295.69C948.339 296.208 948.43 296.649 948.612 297.012C948.797 297.376 949.054 297.654 949.384 297.845C949.714 298.034 950.099 298.128 950.54 298.128C950.827 298.128 951.087 298.088 951.323 298.007C951.559 297.923 951.762 297.798 951.934 297.633C952.106 297.468 952.237 297.265 952.328 297.023L953.757 297.28C953.642 297.701 953.437 298.069 953.141 298.386C952.848 298.699 952.479 298.943 952.035 299.118C951.594 299.289 951.091 299.375 950.525 299.375ZM961.339 293.357L959.97 293.599C959.913 293.424 959.822 293.258 959.698 293.1C959.577 292.941 959.412 292.812 959.203 292.711C958.994 292.61 958.733 292.559 958.42 292.559C957.993 292.559 957.636 292.655 957.35 292.847C957.064 293.036 956.921 293.28 956.921 293.579C956.921 293.838 957.017 294.047 957.209 294.205C957.401 294.363 957.71 294.493 958.138 294.594L959.37 294.877C960.083 295.042 960.615 295.296 960.965 295.639C961.315 295.982 961.49 296.428 961.49 296.977C961.49 297.442 961.355 297.856 961.086 298.219C960.82 298.579 960.448 298.862 959.97 299.067C959.496 299.273 958.945 299.375 958.319 299.375C957.451 299.375 956.742 299.19 956.194 298.82C955.645 298.446 955.309 297.916 955.184 297.23L956.643 297.007C956.734 297.388 956.921 297.675 957.204 297.871C957.486 298.063 957.855 298.158 958.309 298.158C958.804 298.158 959.2 298.056 959.496 297.851C959.792 297.642 959.94 297.388 959.94 297.088C959.94 296.846 959.849 296.642 959.667 296.477C959.489 296.312 959.215 296.188 958.844 296.104L957.532 295.816C956.808 295.651 956.273 295.388 955.926 295.028C955.583 294.668 955.411 294.212 955.411 293.66C955.411 293.202 955.539 292.802 955.795 292.458C956.051 292.115 956.404 291.847 956.855 291.656C957.306 291.46 957.823 291.363 958.405 291.363C959.243 291.363 959.903 291.545 960.384 291.908C960.866 292.268 961.184 292.751 961.339 293.357Z" fill="white"/>
<rect x="1062.21" y="223.017" width="185.212" height="41.8806" rx="20.9403" fill="#110F10"/>
<path d="M1082.3 249.458H1078.95V239.118H1082.4C1083.42 239.118 1084.29 239.325 1085.01 239.739C1085.74 240.149 1086.3 240.74 1086.68 241.511C1087.08 242.278 1087.27 243.199 1087.27 244.272C1087.27 245.349 1087.07 246.275 1086.68 247.049C1086.29 247.823 1085.72 248.419 1084.98 248.837C1084.24 249.251 1083.35 249.458 1082.3 249.458ZM1080.51 248.094H1082.21C1083 248.094 1083.65 247.946 1084.18 247.65C1084.7 247.35 1085.09 246.918 1085.35 246.352C1085.61 245.784 1085.74 245.09 1085.74 244.272C1085.74 243.461 1085.61 242.773 1085.35 242.207C1085.09 241.642 1084.71 241.213 1084.2 240.92C1083.69 240.627 1083.06 240.481 1082.31 240.481H1080.51V248.094ZM1092.36 249.614C1091.63 249.614 1090.99 249.447 1090.45 249.114C1089.91 248.781 1089.49 248.315 1089.19 247.716C1088.89 247.117 1088.74 246.416 1088.74 245.615C1088.74 244.811 1088.89 244.107 1089.19 243.505C1089.49 242.902 1089.91 242.435 1090.45 242.101C1090.99 241.768 1091.63 241.602 1092.36 241.602C1093.08 241.602 1093.72 241.768 1094.26 242.101C1094.8 242.435 1095.22 242.902 1095.52 243.505C1095.82 244.107 1095.97 244.811 1095.97 245.615C1095.97 246.416 1095.82 247.117 1095.52 247.716C1095.22 248.315 1094.8 248.781 1094.26 249.114C1093.72 249.447 1093.08 249.614 1092.36 249.614ZM1092.36 248.347C1092.83 248.347 1093.22 248.222 1093.53 247.973C1093.84 247.724 1094.07 247.393 1094.22 246.979C1094.37 246.565 1094.45 246.108 1094.45 245.61C1094.45 245.116 1094.37 244.661 1094.22 244.247C1094.07 243.83 1093.84 243.495 1093.53 243.242C1093.22 242.99 1092.83 242.864 1092.36 242.864C1091.89 242.864 1091.49 242.99 1091.18 243.242C1090.87 243.495 1090.64 243.83 1090.49 244.247C1090.34 244.661 1090.27 245.116 1090.27 245.61C1090.27 246.108 1090.34 246.565 1090.49 246.979C1090.64 247.393 1090.87 247.724 1091.18 247.973C1091.49 248.222 1091.89 248.347 1092.36 248.347ZM1100.92 249.614C1100.17 249.614 1099.53 249.444 1098.98 249.104C1098.45 248.761 1098.03 248.288 1097.74 247.685C1097.45 247.083 1097.31 246.393 1097.31 245.615C1097.31 244.828 1097.46 244.133 1097.75 243.53C1098.05 242.924 1098.47 242.451 1099 242.111C1099.54 241.772 1100.18 241.602 1100.91 241.602C1101.5 241.602 1102.02 241.711 1102.48 241.93C1102.94 242.145 1103.32 242.448 1103.6 242.839C1103.88 243.229 1104.05 243.685 1104.11 244.207H1102.64C1102.56 243.843 1102.37 243.53 1102.08 243.268C1101.8 243.005 1101.41 242.874 1100.93 242.874C1100.51 242.874 1100.14 242.985 1099.83 243.207C1099.51 243.426 1099.27 243.739 1099.09 244.146C1098.92 244.55 1098.83 245.028 1098.83 245.58C1098.83 246.145 1098.92 246.634 1099.09 247.044C1099.26 247.455 1099.5 247.773 1099.82 247.998C1100.13 248.224 1100.5 248.337 1100.93 248.337C1101.22 248.337 1101.48 248.285 1101.71 248.18C1101.95 248.072 1102.14 247.919 1102.3 247.721C1102.46 247.522 1102.57 247.283 1102.64 247.004H1104.11C1104.05 247.505 1103.89 247.953 1103.62 248.347C1103.35 248.741 1102.98 249.05 1102.52 249.276C1102.07 249.501 1101.53 249.614 1100.92 249.614ZM1109.34 241.703V242.914H1105.11V241.703H1109.34ZM1106.24 239.845H1107.75V247.181C1107.75 247.473 1107.8 247.694 1107.88 247.842C1107.97 247.987 1108.08 248.086 1108.22 248.14C1108.36 248.19 1108.52 248.216 1108.68 248.216C1108.8 248.216 1108.91 248.207 1109 248.19C1109.09 248.173 1109.16 248.16 1109.21 248.15L1109.48 249.397C1109.4 249.431 1109.27 249.464 1109.11 249.498C1108.95 249.535 1108.75 249.555 1108.5 249.558C1108.11 249.565 1107.74 249.495 1107.39 249.346C1107.05 249.198 1106.77 248.969 1106.56 248.66C1106.35 248.35 1106.24 247.961 1106.24 247.494V239.845ZM1114.2 249.614C1113.47 249.614 1112.83 249.447 1112.29 249.114C1111.75 248.781 1111.33 248.315 1111.03 247.716C1110.73 247.117 1110.58 246.416 1110.58 245.615C1110.58 244.811 1110.73 244.107 1111.03 243.505C1111.33 242.902 1111.75 242.435 1112.29 242.101C1112.83 241.768 1113.47 241.602 1114.2 241.602C1114.92 241.602 1115.56 241.768 1116.1 242.101C1116.64 242.435 1117.06 242.902 1117.36 243.505C1117.66 244.107 1117.81 244.811 1117.81 245.615C1117.81 246.416 1117.66 247.117 1117.36 247.716C1117.06 248.315 1116.64 248.781 1116.1 249.114C1115.56 249.447 1114.92 249.614 1114.2 249.614ZM1114.2 248.347C1114.67 248.347 1115.06 248.222 1115.37 247.973C1115.68 247.724 1115.91 247.393 1116.06 246.979C1116.21 246.565 1116.29 246.108 1116.29 245.61C1116.29 245.116 1116.21 244.661 1116.06 244.247C1115.91 243.83 1115.68 243.495 1115.37 243.242C1115.06 242.99 1114.67 242.864 1114.2 242.864C1113.73 242.864 1113.33 242.99 1113.02 243.242C1112.71 243.495 1112.48 243.83 1112.33 244.247C1112.18 244.661 1112.11 245.116 1112.11 245.61C1112.11 246.108 1112.18 246.565 1112.33 246.979C1112.48 247.393 1112.71 247.724 1113.02 247.973C1113.33 248.222 1113.73 248.347 1114.2 248.347ZM1119.5 249.458V241.703H1120.95V242.934H1121.04C1121.18 242.517 1121.43 242.189 1121.78 241.95C1122.14 241.708 1122.55 241.586 1123 241.586C1123.1 241.586 1123.21 241.59 1123.34 241.597C1123.47 241.603 1123.57 241.612 1123.65 241.622V243.066C1123.59 243.049 1123.48 243.03 1123.32 243.01C1123.17 242.987 1123.01 242.975 1122.86 242.975C1122.5 242.975 1122.18 243.051 1121.9 243.202C1121.63 243.35 1121.41 243.557 1121.25 243.823C1121.09 244.086 1121.01 244.385 1121.01 244.722V249.458H1119.5ZM1131.72 249.604C1131.03 249.604 1130.43 249.478 1129.93 249.225C1129.43 248.973 1129.05 248.63 1128.78 248.195C1128.51 247.758 1128.38 247.263 1128.38 246.711C1128.38 246.29 1128.46 245.917 1128.64 245.59C1128.81 245.26 1129.06 244.956 1129.37 244.676C1129.68 244.397 1130.05 244.116 1130.46 243.833L1132.12 242.657C1132.41 242.472 1132.63 242.276 1132.78 242.071C1132.94 241.862 1133.02 241.605 1133.02 241.299C1133.02 241.056 1132.92 240.824 1132.71 240.602C1132.5 240.38 1132.22 240.269 1131.87 240.269C1131.63 240.269 1131.41 240.328 1131.23 240.445C1131.05 240.563 1130.9 240.715 1130.8 240.9C1130.7 241.082 1130.65 241.273 1130.65 241.475C1130.65 241.711 1130.71 241.948 1130.84 242.187C1130.97 242.426 1131.14 242.674 1131.35 242.929C1131.55 243.182 1131.77 243.444 1131.99 243.717L1136.79 249.458H1135.09L1131.11 244.787C1130.78 244.394 1130.47 244.023 1130.18 243.677C1129.9 243.327 1129.67 242.973 1129.49 242.616C1129.31 242.256 1129.22 241.867 1129.22 241.45C1129.22 240.976 1129.33 240.555 1129.55 240.188C1129.77 239.818 1130.07 239.528 1130.46 239.319C1130.85 239.111 1131.31 239.006 1131.83 239.006C1132.37 239.006 1132.82 239.111 1133.2 239.319C1133.59 239.525 1133.88 239.799 1134.09 240.142C1134.3 240.482 1134.4 240.854 1134.4 241.258C1134.4 241.75 1134.28 242.184 1134.03 242.561C1133.79 242.934 1133.45 243.278 1133.03 243.591L1130.95 245.121C1130.55 245.417 1130.27 245.71 1130.11 245.999C1129.95 246.285 1129.88 246.509 1129.88 246.671C1129.88 246.967 1129.95 247.241 1130.1 247.494C1130.26 247.746 1130.47 247.948 1130.75 248.099C1131.03 248.251 1131.36 248.327 1131.73 248.327C1132.11 248.327 1132.49 248.244 1132.85 248.079C1133.22 247.911 1133.55 247.67 1133.84 247.357C1134.14 247.044 1134.38 246.669 1134.56 246.231C1134.73 245.794 1134.82 245.304 1134.82 244.762H1136.18C1136.18 245.429 1136.11 245.992 1135.95 246.453C1135.8 246.911 1135.62 247.285 1135.4 247.574C1135.19 247.86 1134.99 248.084 1134.8 248.246C1134.74 248.3 1134.69 248.354 1134.63 248.407C1134.58 248.461 1134.52 248.515 1134.46 248.569C1134.11 248.922 1133.69 249.183 1133.19 249.351C1132.69 249.52 1132.21 249.604 1131.72 249.604ZM1150.21 239.118V249.458H1148.77L1143.52 241.874H1143.42V249.458H1141.86V239.118H1143.3L1148.56 246.711H1148.66V239.118H1150.21ZM1157.27 246.241V241.703H1158.79V249.458H1157.3V248.115H1157.22C1157.04 248.529 1156.76 248.874 1156.36 249.15C1155.97 249.422 1155.49 249.558 1154.9 249.558C1154.41 249.558 1153.97 249.449 1153.58 249.23C1153.2 249.008 1152.9 248.68 1152.68 248.246C1152.47 247.812 1152.36 247.275 1152.36 246.635V241.703H1153.87V246.453C1153.87 246.982 1154.02 247.403 1154.31 247.716C1154.6 248.029 1154.98 248.185 1155.45 248.185C1155.73 248.185 1156.01 248.115 1156.29 247.973C1156.58 247.832 1156.81 247.618 1156.99 247.332C1157.18 247.046 1157.28 246.682 1157.27 246.241ZM1160.82 249.458V241.703H1162.27V242.934H1162.36C1162.5 242.517 1162.75 242.189 1163.1 241.95C1163.46 241.708 1163.87 241.586 1164.32 241.586C1164.42 241.586 1164.53 241.59 1164.66 241.597C1164.79 241.603 1164.89 241.612 1164.97 241.622V243.066C1164.9 243.049 1164.8 243.03 1164.64 243.01C1164.49 242.987 1164.33 242.975 1164.18 242.975C1163.82 242.975 1163.5 243.051 1163.22 243.202C1162.95 243.35 1162.73 243.557 1162.57 243.823C1162.41 244.086 1162.32 244.385 1162.32 244.722V249.458H1160.82ZM1172.08 243.596L1170.71 243.838C1170.66 243.663 1170.57 243.497 1170.44 243.338C1170.32 243.18 1170.16 243.051 1169.95 242.95C1169.74 242.849 1169.48 242.798 1169.16 242.798C1168.74 242.798 1168.38 242.894 1168.09 243.086C1167.81 243.274 1167.67 243.518 1167.67 243.818C1167.67 244.077 1167.76 244.286 1167.95 244.444C1168.14 244.602 1168.45 244.732 1168.88 244.833L1170.11 245.116C1170.83 245.28 1171.36 245.535 1171.71 245.878C1172.06 246.221 1172.23 246.667 1172.23 247.216C1172.23 247.68 1172.1 248.094 1171.83 248.458C1171.56 248.818 1171.19 249.101 1170.71 249.306C1170.24 249.511 1169.69 249.614 1169.06 249.614C1168.2 249.614 1167.49 249.429 1166.94 249.059C1166.39 248.685 1166.05 248.155 1165.93 247.468L1167.39 247.246C1167.48 247.626 1167.67 247.914 1167.95 248.109C1168.23 248.301 1168.6 248.397 1169.05 248.397C1169.55 248.397 1169.94 248.295 1170.24 248.089C1170.54 247.881 1170.68 247.626 1170.68 247.327C1170.68 247.085 1170.59 246.881 1170.41 246.716C1170.23 246.551 1169.96 246.427 1169.59 246.342L1168.28 246.055C1167.55 245.89 1167.02 245.627 1166.67 245.267C1166.33 244.907 1166.16 244.451 1166.16 243.899C1166.16 243.441 1166.28 243.04 1166.54 242.697C1166.8 242.354 1167.15 242.086 1167.6 241.894C1168.05 241.699 1168.57 241.602 1169.15 241.602C1169.99 241.602 1170.65 241.783 1171.13 242.147C1171.61 242.507 1171.93 242.99 1172.08 243.596ZM1177.24 249.614C1176.47 249.614 1175.81 249.451 1175.26 249.124C1174.71 248.794 1174.29 248.332 1173.99 247.736C1173.69 247.137 1173.55 246.435 1173.55 245.631C1173.55 244.836 1173.69 244.136 1173.99 243.53C1174.29 242.924 1174.71 242.451 1175.24 242.111C1175.78 241.772 1176.41 241.602 1177.13 241.602C1177.57 241.602 1177.99 241.674 1178.4 241.819C1178.81 241.963 1179.18 242.191 1179.51 242.5C1179.83 242.81 1180.09 243.212 1180.28 243.707C1180.47 244.198 1180.56 244.796 1180.56 245.499V246.034H1174.4V244.903H1179.08C1179.08 244.506 1179 244.155 1178.84 243.848C1178.68 243.539 1178.45 243.295 1178.16 243.116C1177.87 242.938 1177.53 242.849 1177.14 242.849C1176.72 242.849 1176.35 242.953 1176.03 243.162C1175.72 243.367 1175.47 243.636 1175.3 243.969C1175.13 244.299 1175.05 244.658 1175.05 245.045V245.928C1175.05 246.447 1175.14 246.888 1175.32 247.251C1175.51 247.615 1175.77 247.892 1176.1 248.084C1176.43 248.273 1176.81 248.367 1177.25 248.367C1177.54 248.367 1177.8 248.327 1178.03 248.246C1178.27 248.162 1178.47 248.037 1178.65 247.872C1178.82 247.707 1178.95 247.504 1179.04 247.261L1180.47 247.519C1180.35 247.94 1180.15 248.308 1179.85 248.624C1179.56 248.937 1179.19 249.182 1178.75 249.357C1178.31 249.528 1177.8 249.614 1177.24 249.614ZM1193.12 242.384C1193.02 242.078 1192.89 241.804 1192.73 241.561C1192.56 241.315 1192.37 241.107 1192.15 240.935C1191.92 240.76 1191.66 240.627 1191.37 240.536C1191.09 240.445 1190.77 240.4 1190.43 240.4C1189.85 240.4 1189.32 240.55 1188.85 240.849C1188.39 241.149 1188.02 241.588 1187.74 242.167C1187.47 242.743 1187.34 243.448 1187.34 244.282C1187.34 245.121 1187.48 245.829 1187.75 246.408C1188.02 246.987 1188.39 247.426 1188.87 247.726C1189.34 248.025 1189.88 248.175 1190.49 248.175C1191.05 248.175 1191.54 248.061 1191.96 247.832C1192.38 247.603 1192.7 247.28 1192.93 246.862C1193.17 246.442 1193.28 245.947 1193.28 245.378L1193.69 245.454H1190.73V244.166H1194.79V245.343C1194.79 246.211 1194.61 246.965 1194.24 247.605C1193.87 248.241 1193.36 248.732 1192.71 249.079C1192.06 249.426 1191.32 249.599 1190.49 249.599C1189.55 249.599 1188.73 249.383 1188.03 248.953C1187.32 248.522 1186.77 247.911 1186.38 247.12C1185.99 246.326 1185.79 245.383 1185.79 244.293C1185.79 243.468 1185.9 242.727 1186.13 242.071C1186.36 241.415 1186.68 240.858 1187.1 240.4C1187.51 239.939 1188 239.587 1188.57 239.345C1189.13 239.099 1189.75 238.976 1190.42 238.976C1190.98 238.976 1191.5 239.059 1191.98 239.224C1192.46 239.388 1192.89 239.622 1193.27 239.925C1193.65 240.228 1193.97 240.588 1194.22 241.006C1194.46 241.42 1194.63 241.879 1194.72 242.384H1193.12ZM1199.92 249.614C1199.19 249.614 1198.56 249.447 1198.01 249.114C1197.47 248.781 1197.05 248.315 1196.75 247.716C1196.45 247.117 1196.3 246.416 1196.3 245.615C1196.3 244.811 1196.45 244.107 1196.75 243.505C1197.05 242.902 1197.47 242.435 1198.01 242.101C1198.56 241.768 1199.19 241.602 1199.92 241.602C1200.64 241.602 1201.28 241.768 1201.82 242.101C1202.36 242.435 1202.78 242.902 1203.08 243.505C1203.38 244.107 1203.53 244.811 1203.53 245.615C1203.53 246.416 1203.38 247.117 1203.08 247.716C1202.78 248.315 1202.36 248.781 1201.82 249.114C1201.28 249.447 1200.64 249.614 1199.92 249.614ZM1199.92 248.347C1200.39 248.347 1200.78 248.222 1201.09 247.973C1201.4 247.724 1201.63 247.393 1201.78 246.979C1201.93 246.565 1202.01 246.108 1202.01 245.61C1202.01 245.116 1201.93 244.661 1201.78 244.247C1201.63 243.83 1201.4 243.495 1201.09 243.242C1200.78 242.99 1200.39 242.864 1199.92 242.864C1199.45 242.864 1199.05 242.99 1198.74 243.242C1198.43 243.495 1198.2 243.83 1198.05 244.247C1197.9 244.661 1197.83 245.116 1197.83 245.61C1197.83 246.108 1197.9 246.565 1198.05 246.979C1198.2 247.393 1198.43 247.724 1198.74 247.973C1199.05 248.222 1199.45 248.347 1199.92 248.347ZM1206.66 249.458L1204.38 241.703H1205.94L1207.46 247.398H1207.54L1209.06 241.703H1210.62L1212.14 247.372H1212.21L1213.72 241.703H1215.28L1213 249.458H1211.46L1209.89 243.858H1209.77L1208.2 249.458H1206.66ZM1218.22 244.853V249.458H1216.71V241.703H1218.16V242.965H1218.26C1218.44 242.554 1218.72 242.224 1219.1 241.975C1219.48 241.726 1219.96 241.602 1220.55 241.602C1221.07 241.602 1221.54 241.713 1221.93 241.935C1222.33 242.154 1222.64 242.48 1222.86 242.914C1223.08 243.348 1223.19 243.885 1223.19 244.525V249.458H1221.68V244.707C1221.68 244.144 1221.53 243.705 1221.24 243.389C1220.94 243.069 1220.54 242.909 1220.03 242.909C1219.68 242.909 1219.37 242.985 1219.1 243.136C1218.83 243.288 1218.61 243.51 1218.46 243.803C1218.3 244.092 1218.22 244.442 1218.22 244.853ZM1231.02 243.596L1229.65 243.838C1229.6 243.663 1229.51 243.497 1229.38 243.338C1229.26 243.18 1229.09 243.051 1228.89 242.95C1228.68 242.849 1228.42 242.798 1228.1 242.798C1227.68 242.798 1227.32 242.894 1227.03 243.086C1226.75 243.274 1226.6 243.518 1226.6 243.818C1226.6 244.077 1226.7 244.286 1226.89 244.444C1227.08 244.602 1227.39 244.732 1227.82 244.833L1229.05 245.116C1229.77 245.28 1230.3 245.535 1230.65 245.878C1231 246.221 1231.17 246.667 1231.17 247.216C1231.17 247.68 1231.04 248.094 1230.77 248.458C1230.5 248.818 1230.13 249.101 1229.65 249.306C1229.18 249.511 1228.63 249.614 1228 249.614C1227.13 249.614 1226.43 249.429 1225.88 249.059C1225.33 248.685 1224.99 248.155 1224.87 247.468L1226.33 247.246C1226.42 247.626 1226.6 247.914 1226.89 248.109C1227.17 248.301 1227.54 248.397 1227.99 248.397C1228.49 248.397 1228.88 248.295 1229.18 248.089C1229.47 247.881 1229.62 247.626 1229.62 247.327C1229.62 247.085 1229.53 246.881 1229.35 246.716C1229.17 246.551 1228.9 246.427 1228.53 246.342L1227.21 246.055C1226.49 245.89 1225.96 245.627 1225.61 245.267C1225.27 244.907 1225.09 244.451 1225.09 243.899C1225.09 243.441 1225.22 243.04 1225.48 242.697C1225.73 242.354 1226.09 242.086 1226.54 241.894C1226.99 241.699 1227.51 241.602 1228.09 241.602C1228.93 241.602 1229.59 241.783 1230.07 242.147C1230.55 242.507 1230.87 242.99 1231.02 243.596Z" fill="white"/>
<rect x="32.3315" y="248.786" width="173.212" height="41.8806" rx="20.9403" fill="#110F10"/>
<path d="M52.4641 275.227V264.887H54.0242V269.824H54.1504L58.4873 264.887H60.4513L56.281 269.542L60.4665 275.227H58.5883L55.246 270.607L54.0242 272.01V275.227H52.4641ZM62.2702 275.227V267.472H63.7798V275.227H62.2702ZM63.0325 266.275C62.77 266.275 62.5445 266.187 62.356 266.012C62.1709 265.834 62.0783 265.622 62.0783 265.376C62.0783 265.127 62.1709 264.915 62.356 264.74C62.5445 264.562 62.77 264.473 63.0325 264.473C63.2951 264.473 63.5189 264.562 63.704 264.74C63.8925 264.915 63.9868 265.127 63.9868 265.376C63.9868 265.622 63.8925 265.834 63.704 266.012C63.5189 266.187 63.2951 266.275 63.0325 266.275ZM69.4307 267.472V268.683H65.1947V267.472H69.4307ZM66.3307 265.614H67.8403V272.95C67.8403 273.242 67.884 273.463 67.9716 273.611C68.0591 273.756 68.1718 273.855 68.3098 273.909C68.4512 273.959 68.6043 273.985 68.7693 273.985C68.8904 273.985 68.9965 273.976 69.0873 273.959C69.1782 273.942 69.2489 273.929 69.2994 273.919L69.572 275.166C69.4845 275.2 69.36 275.233 69.1984 275.267C69.0369 275.304 68.8349 275.324 68.5926 275.328C68.1954 275.334 67.8251 275.264 67.4818 275.115C67.1385 274.967 66.8608 274.739 66.6488 274.429C66.4367 274.119 66.3307 273.73 66.3307 273.263V265.614ZM74.2838 275.383C73.5333 275.383 72.887 275.213 72.3451 274.873C71.8066 274.53 71.3926 274.057 71.1031 273.454C70.8136 272.852 70.6689 272.162 70.6689 271.384C70.6689 270.597 70.817 269.902 71.1132 269.299C71.4094 268.693 71.8268 268.22 72.3653 267.881C72.9038 267.541 73.5383 267.371 74.2687 267.371C74.8577 267.371 75.3828 267.48 75.8439 267.699C76.3051 267.914 76.677 268.217 76.9597 268.608C77.2458 268.998 77.4158 269.454 77.4696 269.976H76.0004C75.9197 269.612 75.7345 269.299 75.4451 269.037C75.159 268.774 74.7753 268.643 74.2939 268.643C73.8732 268.643 73.5046 268.754 73.1883 268.976C72.8752 269.195 72.6312 269.508 72.4562 269.915C72.2811 270.319 72.1936 270.797 72.1936 271.349C72.1936 271.915 72.2795 272.403 72.4511 272.813C72.6228 273.224 72.8651 273.542 73.1782 273.767C73.4945 273.993 73.8665 274.106 74.2939 274.106C74.58 274.106 74.8392 274.054 75.0715 273.949C75.3071 273.842 75.504 273.688 75.6622 273.49C75.8237 273.291 75.9365 273.052 76.0004 272.773H77.4696C77.4158 273.274 77.2526 273.722 76.9799 274.116C76.7073 274.51 76.3421 274.819 75.8843 275.045C75.4299 275.27 74.8964 275.383 74.2838 275.383ZM80.5936 270.622V275.227H79.084V264.887H80.5734V268.734H80.6693C80.8511 268.316 81.1288 267.985 81.5024 267.739C81.876 267.493 82.3641 267.371 82.9666 267.371C83.4984 267.371 83.9629 267.48 84.36 267.699C84.7606 267.918 85.0702 268.244 85.289 268.678C85.5112 269.109 85.6222 269.648 85.6222 270.294V275.227H84.1126V270.476C84.1126 269.907 83.9662 269.466 83.6734 269.153C83.3806 268.836 82.9733 268.678 82.4516 268.678C82.0948 268.678 81.775 268.754 81.4923 268.905C81.2129 269.057 80.9925 269.279 80.8309 269.572C80.6727 269.861 80.5936 270.211 80.5936 270.622ZM90.979 275.383C90.215 275.383 89.5569 275.22 89.0049 274.893C88.4563 274.563 88.0322 274.101 87.7326 273.505C87.4364 272.906 87.2883 272.204 87.2883 271.4C87.2883 270.605 87.4364 269.905 87.7326 269.299C88.0322 268.693 88.4496 268.22 88.9847 267.881C89.5233 267.541 90.1527 267.371 90.873 267.371C91.3106 267.371 91.7347 267.443 92.1453 267.588C92.5559 267.732 92.9245 267.96 93.251 268.269C93.5775 268.579 93.835 268.981 94.0235 269.476C94.212 269.967 94.3062 270.565 94.3062 271.268V271.803H88.1416V270.673H92.8269C92.8269 270.275 92.7461 269.924 92.5846 269.617C92.423 269.308 92.1958 269.064 91.903 268.885C91.6135 268.707 91.2735 268.618 90.8831 268.618C90.459 268.618 90.0888 268.722 89.7724 268.931C89.4593 269.136 89.217 269.405 89.0453 269.738C88.877 270.068 88.7929 270.427 88.7929 270.814V271.697C88.7929 272.216 88.8838 272.657 89.0655 273.02C89.2506 273.384 89.5081 273.661 89.838 273.853C90.1678 274.042 90.5532 274.136 90.9942 274.136C91.2803 274.136 91.5411 274.096 91.7767 274.015C92.0124 273.931 92.216 273.806 92.3876 273.641C92.5593 273.476 92.6906 273.273 92.7815 273.03L94.2103 273.288C94.0958 273.709 93.8905 274.077 93.5943 274.394C93.3015 274.707 92.9329 274.951 92.4886 275.126C92.0477 275.297 91.5445 275.383 90.979 275.383ZM97.4907 270.622V275.227H95.9811V267.472H97.4302V268.734H97.5261C97.7045 268.323 97.9838 267.993 98.3642 267.744C98.7479 267.495 99.2309 267.371 99.8132 267.371C100.342 267.371 100.804 267.482 101.202 267.704C101.599 267.923 101.907 268.249 102.126 268.683C102.344 269.117 102.454 269.654 102.454 270.294V275.227H100.944V270.476C100.944 269.914 100.798 269.474 100.505 269.158C100.212 268.838 99.8098 268.678 99.2982 268.678C98.9482 268.678 98.6368 268.754 98.3642 268.905C98.0949 269.057 97.8812 269.279 97.723 269.572C97.5682 269.861 97.4907 270.211 97.4907 270.622ZM109.236 275.227H107.58L111.301 264.887H113.103L116.824 275.227H115.168L112.245 266.765H112.164L109.236 275.227ZM109.513 271.177H114.885V272.49H109.513V271.177ZM121.338 275.383C120.587 275.383 119.941 275.213 119.399 274.873C118.86 274.53 118.446 274.057 118.157 273.454C117.867 272.852 117.723 272.162 117.723 271.384C117.723 270.597 117.871 269.902 118.167 269.299C118.463 268.693 118.88 268.22 119.419 267.881C119.958 267.541 120.592 267.371 121.322 267.371C121.911 267.371 122.437 267.48 122.898 267.699C123.359 267.914 123.731 268.217 124.013 268.608C124.3 268.998 124.47 269.454 124.523 269.976H123.054C122.973 269.612 122.788 269.299 122.499 269.037C122.213 268.774 121.829 268.643 121.348 268.643C120.927 268.643 120.558 268.754 120.242 268.976C119.929 269.195 119.685 269.508 119.51 269.915C119.335 270.319 119.247 270.797 119.247 271.349C119.247 271.915 119.333 272.403 119.505 272.813C119.677 273.224 119.919 273.542 120.232 273.767C120.548 273.993 120.92 274.106 121.348 274.106C121.634 274.106 121.893 274.054 122.125 273.949C122.361 273.842 122.558 273.688 122.716 273.49C122.877 273.291 122.99 273.052 123.054 272.773H124.523C124.47 273.274 124.306 273.722 124.034 274.116C123.761 274.51 123.396 274.819 122.938 275.045C122.484 275.27 121.95 275.383 121.338 275.383ZM129.404 275.383C128.654 275.383 128.007 275.213 127.466 274.873C126.927 274.53 126.513 274.057 126.224 273.454C125.934 272.852 125.789 272.162 125.789 271.384C125.789 270.597 125.937 269.902 126.234 269.299C126.53 268.693 126.947 268.22 127.486 267.881C128.024 267.541 128.659 267.371 129.389 267.371C129.978 267.371 130.503 267.48 130.964 267.699C131.426 267.914 131.797 268.217 132.08 268.608C132.366 268.998 132.536 269.454 132.59 269.976H131.121C131.04 269.612 130.855 269.299 130.566 269.037C130.279 268.774 129.896 268.643 129.414 268.643C128.994 268.643 128.625 268.754 128.309 268.976C127.996 269.195 127.752 269.508 127.577 269.915C127.402 270.319 127.314 270.797 127.314 271.349C127.314 271.915 127.4 272.403 127.572 272.813C127.743 273.224 127.986 273.542 128.299 273.767C128.615 273.993 128.987 274.106 129.414 274.106C129.701 274.106 129.96 274.054 130.192 273.949C130.428 273.842 130.624 273.688 130.783 273.49C130.944 273.291 131.057 273.052 131.121 272.773H132.59C132.536 273.274 132.373 273.722 132.1 274.116C131.828 274.51 131.463 274.819 131.005 275.045C130.55 275.27 130.017 275.383 129.404 275.383ZM137.547 275.383C136.783 275.383 136.125 275.22 135.573 274.893C135.024 274.563 134.6 274.101 134.3 273.505C134.004 272.906 133.856 272.204 133.856 271.4C133.856 270.605 134.004 269.905 134.3 269.299C134.6 268.693 135.017 268.22 135.553 267.881C136.091 267.541 136.72 267.371 137.441 267.371C137.878 267.371 138.302 267.443 138.713 267.588C139.124 267.732 139.492 267.96 139.819 268.269C140.145 268.579 140.403 268.981 140.591 269.476C140.78 269.967 140.874 270.565 140.874 271.268V271.803H134.709V270.673H139.395C139.395 270.275 139.314 269.924 139.152 269.617C138.991 269.308 138.764 269.064 138.471 268.885C138.181 268.707 137.841 268.618 137.451 268.618C137.027 268.618 136.657 268.722 136.34 268.931C136.027 269.136 135.785 269.405 135.613 269.738C135.445 270.068 135.361 270.427 135.361 270.814V271.697C135.361 272.216 135.452 272.657 135.633 273.02C135.818 273.384 136.076 273.661 136.406 273.853C136.736 274.042 137.121 274.136 137.562 274.136C137.848 274.136 138.109 274.096 138.345 274.015C138.58 273.931 138.784 273.806 138.955 273.641C139.127 273.476 139.258 273.273 139.349 273.03L140.778 273.288C140.664 273.709 140.458 274.077 140.162 274.394C139.869 274.707 139.501 274.951 139.056 275.126C138.615 275.297 138.112 275.383 137.547 275.383ZM148.36 269.365L146.992 269.607C146.935 269.432 146.844 269.266 146.719 269.107C146.598 268.949 146.433 268.82 146.224 268.719C146.016 268.618 145.755 268.567 145.442 268.567C145.014 268.567 144.658 268.663 144.372 268.855C144.085 269.043 143.942 269.287 143.942 269.587C143.942 269.846 144.038 270.055 144.23 270.213C144.422 270.371 144.732 270.501 145.159 270.602L146.391 270.885C147.105 271.05 147.636 271.304 147.987 271.647C148.337 271.99 148.512 272.436 148.512 272.985C148.512 273.449 148.377 273.863 148.108 274.227C147.842 274.587 147.47 274.87 146.992 275.075C146.517 275.28 145.967 275.383 145.341 275.383C144.473 275.383 143.764 275.198 143.215 274.828C142.667 274.454 142.33 273.924 142.206 273.237L143.665 273.015C143.756 273.396 143.942 273.683 144.225 273.879C144.508 274.07 144.876 274.166 145.331 274.166C145.826 274.166 146.221 274.064 146.517 273.858C146.814 273.65 146.962 273.396 146.962 273.096C146.962 272.854 146.871 272.65 146.689 272.485C146.511 272.32 146.236 272.196 145.866 272.111L144.553 271.824C143.83 271.659 143.294 271.396 142.948 271.036C142.604 270.676 142.433 270.22 142.433 269.668C142.433 269.21 142.561 268.81 142.817 268.466C143.072 268.123 143.426 267.855 143.877 267.663C144.328 267.468 144.844 267.371 145.427 267.371C146.265 267.371 146.925 267.552 147.406 267.916C147.887 268.276 148.205 268.759 148.36 269.365ZM155.983 269.365L154.614 269.607C154.557 269.432 154.466 269.266 154.342 269.107C154.221 268.949 154.056 268.82 153.847 268.719C153.638 268.618 153.377 268.567 153.064 268.567C152.637 268.567 152.28 268.663 151.994 268.855C151.708 269.043 151.565 269.287 151.565 269.587C151.565 269.846 151.661 270.055 151.853 270.213C152.045 270.371 152.354 270.501 152.782 270.602L154.014 270.885C154.727 271.05 155.259 271.304 155.609 271.647C155.959 271.99 156.134 272.436 156.134 272.985C156.134 273.449 155.999 273.863 155.73 274.227C155.464 274.587 155.092 274.87 154.614 275.075C154.14 275.28 153.589 275.383 152.963 275.383C152.095 275.383 151.386 275.198 150.838 274.828C150.289 274.454 149.953 273.924 149.828 273.237L151.287 273.015C151.378 273.396 151.565 273.683 151.848 273.879C152.13 274.07 152.499 274.166 152.953 274.166C153.448 274.166 153.844 274.064 154.14 273.858C154.436 273.65 154.584 273.396 154.584 273.096C154.584 272.854 154.493 272.65 154.311 272.485C154.133 272.32 153.859 272.196 153.488 272.111L152.176 271.824C151.452 271.659 150.917 271.396 150.57 271.036C150.227 270.676 150.055 270.22 150.055 269.668C150.055 269.21 150.183 268.81 150.439 268.466C150.695 268.123 151.048 267.855 151.499 267.663C151.95 267.468 152.467 267.371 153.049 267.371C153.887 267.371 154.547 267.552 155.028 267.916C155.51 268.276 155.828 268.759 155.983 269.365ZM161.06 275.383C160.333 275.383 159.699 275.216 159.157 274.883C158.615 274.55 158.194 274.084 157.895 273.485C157.595 272.886 157.445 272.185 157.445 271.384C157.445 270.58 157.595 269.876 157.895 269.274C158.194 268.672 158.615 268.204 159.157 267.87C159.699 267.537 160.333 267.371 161.06 267.371C161.787 267.371 162.422 267.537 162.964 267.87C163.506 268.204 163.926 268.672 164.226 269.274C164.526 269.876 164.675 270.58 164.675 271.384C164.675 272.185 164.526 272.886 164.226 273.485C163.926 274.084 163.506 274.55 162.964 274.883C162.422 275.216 161.787 275.383 161.06 275.383ZM161.065 274.116C161.537 274.116 161.927 273.991 162.237 273.742C162.546 273.493 162.775 273.162 162.923 272.748C163.075 272.334 163.151 271.878 163.151 271.379C163.151 270.885 163.075 270.43 162.923 270.016C162.775 269.599 162.546 269.264 162.237 269.011C161.927 268.759 161.537 268.633 161.065 268.633C160.591 268.633 160.197 268.759 159.884 269.011C159.574 269.264 159.344 269.599 159.192 270.016C159.044 270.43 158.97 270.885 158.97 271.379C158.97 271.878 159.044 272.334 159.192 272.748C159.344 273.162 159.574 273.493 159.884 273.742C160.197 273.991 160.591 274.116 161.065 274.116ZM166.36 275.227V267.472H167.82V268.703H167.9C168.042 268.286 168.291 267.958 168.648 267.719C169.008 267.477 169.415 267.355 169.869 267.355C169.964 267.355 170.075 267.359 170.203 267.366C170.334 267.372 170.437 267.381 170.511 267.391V268.835C170.45 268.818 170.342 268.799 170.187 268.779C170.033 268.756 169.878 268.744 169.723 268.744C169.366 268.744 169.048 268.82 168.769 268.971C168.493 269.119 168.274 269.326 168.112 269.592C167.951 269.855 167.87 270.154 167.87 270.491V275.227H166.36ZM171.817 275.227V267.472H173.327V275.227H171.817ZM172.579 266.275C172.317 266.275 172.091 266.187 171.903 266.012C171.718 265.834 171.625 265.622 171.625 265.376C171.625 265.127 171.718 264.915 171.903 264.74C172.091 264.562 172.317 264.473 172.579 264.473C172.842 264.473 173.066 264.562 173.251 264.74C173.439 264.915 173.534 265.127 173.534 265.376C173.534 265.622 173.439 265.834 173.251 266.012C173.066 266.187 172.842 266.275 172.579 266.275ZM178.7 275.383C177.936 275.383 177.278 275.22 176.726 274.893C176.177 274.563 175.753 274.101 175.453 273.505C175.157 272.906 175.009 272.204 175.009 271.4C175.009 270.605 175.157 269.905 175.453 269.299C175.753 268.693 176.17 268.22 176.705 267.881C177.244 267.541 177.873 267.371 178.594 267.371C179.031 267.371 179.455 267.443 179.866 267.588C180.277 267.732 180.645 267.96 180.972 268.269C181.298 268.579 181.556 268.981 181.744 269.476C181.933 269.967 182.027 270.565 182.027 271.268V271.803H175.862V270.673H180.548C180.548 270.275 180.467 269.924 180.305 269.617C180.144 269.308 179.917 269.064 179.624 268.885C179.334 268.707 178.994 268.618 178.604 268.618C178.18 268.618 177.809 268.722 177.493 268.931C177.18 269.136 176.938 269.405 176.766 269.738C176.598 270.068 176.514 270.427 176.514 270.814V271.697C176.514 272.216 176.604 272.657 176.786 273.02C176.971 273.384 177.229 273.661 177.559 273.853C177.889 274.042 178.274 274.136 178.715 274.136C179.001 274.136 179.262 274.096 179.497 274.015C179.733 273.931 179.937 273.806 180.108 273.641C180.28 273.476 180.411 273.273 180.502 273.03L181.931 273.288C181.817 273.709 181.611 274.077 181.315 274.394C181.022 274.707 180.654 274.951 180.209 275.126C179.768 275.297 179.265 275.383 178.7 275.383ZM189.513 269.365L188.145 269.607C188.088 269.432 187.997 269.266 187.872 269.107C187.751 268.949 187.586 268.82 187.377 268.719C187.169 268.618 186.908 268.567 186.595 268.567C186.167 268.567 185.811 268.663 185.524 268.855C185.238 269.043 185.095 269.287 185.095 269.587C185.095 269.846 185.191 270.055 185.383 270.213C185.575 270.371 185.885 270.501 186.312 270.602L187.544 270.885C188.258 271.05 188.789 271.304 189.139 271.647C189.489 271.99 189.665 272.436 189.665 272.985C189.665 273.449 189.53 273.863 189.261 274.227C188.995 274.587 188.623 274.87 188.145 275.075C187.67 275.28 187.12 275.383 186.494 275.383C185.625 275.383 184.917 275.198 184.368 274.828C183.82 274.454 183.483 273.924 183.359 273.237L184.818 273.015C184.909 273.396 185.095 273.683 185.378 273.879C185.661 274.07 186.029 274.166 186.484 274.166C186.979 274.166 187.374 274.064 187.67 273.858C187.966 273.65 188.115 273.396 188.115 273.096C188.115 272.854 188.024 272.65 187.842 272.485C187.663 272.32 187.389 272.196 187.019 272.111L185.706 271.824C184.983 271.659 184.447 271.396 184.101 271.036C183.757 270.676 183.586 270.22 183.586 269.668C183.586 269.21 183.714 268.81 183.969 268.466C184.225 268.123 184.579 267.855 185.03 267.663C185.481 267.468 185.997 267.371 186.58 267.371C187.418 267.371 188.077 267.552 188.559 267.916C189.04 268.276 189.358 268.759 189.513 269.365Z" fill="white"/>
</svg>
